<?xml version="1.0" standalone="no"?><!DOCTYPE svg PUBLIC "-//W3C//DTD SVG 1.1//EN"
        "http://www.w3.org/Graphics/SVG/1.1/DTD/svg11.dtd">
<svg class="icon" viewBox="0 0 1024 1024" version="1.1" xmlns="http://www.w3.org/2000/svg"
     width="200" height="200">
    <defs>
        <style type="text/css"/>
    </defs>
    <path d="M904.4 928.7H121.6c-14.1 0-25.5-11.4-25.5-25.5V120.4c0-14.1 11.4-25.5 25.5-25.5h782.8c14.1 0 25.5 11.4 25.5 25.5v782.9c-0.1 14-11.6 25.4-25.5 25.4zM121.6 114.9c-3 0-5.5 2.5-5.5 5.5v782.7c0 3 2.5 5.5 5.5 5.5h782.7c3 0 5.5-2.5 5.6-5.5V120.4c0-3-2.5-5.5-5.5-5.5H121.6z"
          fill="#707070"/>
    <path d="M681 519H343.1c-3.6 0-6.6-3-6.6-6.6 0-3.6 3-6.6 6.6-6.6H681c3.6 0 6.6 3 6.6 6.6 0 3.6-3 6.6-6.6 6.6z"
          fill="#707070"/>
    <path d="M511.8 686.4c-3.6 0-6.6-3-6.6-6.6V341.9c0-3.6 3-6.6 6.6-6.6 3.6 0 6.6 3 6.6 6.6v337.9c0 3.6-3 6.6-6.6 6.6z"
          fill="#707070"/>
</svg>